<svg width="36" height="39" viewBox="0 0 36 39" fill="none" xmlns="http://www.w3.org/2000/svg">
<g clip-path="url(#clip0_499_774)">
<path d="M5.1809 26.1743C7.82138 26.1743 9.9619 24.0338 9.9619 21.3933C9.9619 18.7528 7.82138 16.6123 5.1809 16.6123C2.54043 16.6123 0.399902 18.7528 0.399902 21.3933C0.399902 24.0338 2.54043 26.1743 5.1809 26.1743Z" stroke="#151515" stroke-width="0.8"/>
<path d="M13.2849 9.96239C15.9254 9.96239 18.0659 7.82186 18.0659 5.18139C18.0659 2.54092 15.9254 0.400391 13.2849 0.400391C10.6444 0.400391 8.50391 2.54092 8.50391 5.18139C8.50391 7.82186 10.6444 9.96239 13.2849 9.96239Z" stroke="#151515" stroke-width="0.8"/>
<path d="M22.208 19.6909C24.8485 19.6909 26.989 17.5504 26.989 14.9099C26.989 12.2694 24.8485 10.1289 22.208 10.1289C19.5675 10.1289 17.427 12.2694 17.427 14.9099C17.427 17.5504 19.5675 19.6909 22.208 19.6909Z" stroke="#151515" stroke-width="0.8"/>
<path d="M30.3201 29.4155C32.9605 29.4155 35.1011 27.275 35.1011 24.6345C35.1011 21.994 32.9605 19.8535 30.3201 19.8535C27.6796 19.8535 25.5391 21.994 25.5391 24.6345C25.5391 27.275 27.6796 29.4155 30.3201 29.4155Z" stroke="#151515" stroke-width="0.8"/>
<path d="M22.0961 19.8628V38.1078M30.3991 29.5878V38.0998M12.9671 10.1338V20.6118L17.8311 23.7218V38.1018M4.87012 26.3468V32.3958H13.7881V38.0998" stroke="#151515" stroke-width="0.8"/>
</g>
<defs>
<clipPath id="clip0_499_774">
<rect width="36" height="39" fill="white"/>
</clipPath>
</defs>
</svg>
